<?xml version="1.0" encoding="UTF-8" standalone="no"?>
<!DOCTYPE svg PUBLIC "-//W3C//DTD SVG 1.1//EN"
 "http://www.w3.org/Graphics/SVG/1.1/DTD/svg11.dtd">
<!-- Generated by graphviz version 12.2.1 (20241206.2353)
 -->
<!-- Title: ERD Pages: 1 -->
<svg width="2218pt" height="317pt"
 viewBox="0.00 0.00 2217.50 317.00" xmlns="http://www.w3.org/2000/svg" xmlns:xlink="http://www.w3.org/1999/xlink">
<g id="graph0" class="graph" transform="scale(1 1) rotate(0) translate(4 313)">
<title>ERD</title>
<polygon fill="white" stroke="none" points="-4,4 -4,-313 2213.5,-313 2213.5,4 -4,4"/>
<!-- center -->
<g id="node1" class="node">
<title>center</title>
<path fill="none" stroke="black" d="M1177.12,-189.5C1177.12,-189.5 1546.38,-189.5 1546.38,-189.5 1552.38,-189.5 1558.38,-195.5 1558.38,-201.5 1558.38,-201.5 1558.38,-213.5 1558.38,-213.5 1558.38,-219.5 1552.38,-225.5 1546.38,-225.5 1546.38,-225.5 1177.12,-225.5 1177.12,-225.5 1171.12,-225.5 1165.12,-219.5 1165.12,-213.5 1165.12,-213.5 1165.12,-201.5 1165.12,-201.5 1165.12,-195.5 1171.12,-189.5 1177.12,-189.5"/>
<text text-anchor="middle" x="1189.62" y="-202.7" font-family="Times New Roman,serif" font-size="14.00">center</text>
<polyline fill="none" stroke="black" points="1214.12,-190 1214.12,-225.5"/>
<text text-anchor="middle" x="1272.75" y="-202.7" font-family="Times New Roman,serif" font-size="14.00">CenterID: decimal</text>
<polyline fill="none" stroke="black" points="1331.38,-190 1331.38,-225.5"/>
<text text-anchor="middle" x="1387.38" y="-202.7" font-family="Times New Roman,serif" font-size="14.00">Location: varchar</text>
<polyline fill="none" stroke="black" points="1443.38,-190 1443.38,-225.5"/>
<text text-anchor="middle" x="1500.88" y="-202.7" font-family="Times New Roman,serif" font-size="14.00">Capacity: decimal</text>
</g>
<!-- employee -->
<g id="node2" class="node">
<title>employee</title>
<path fill="none" stroke="black" d="M139.88,-272.5C139.88,-272.5 690.88,-272.5 690.88,-272.5 696.88,-272.5 702.88,-278.5 702.88,-284.5 702.88,-284.5 702.88,-296.5 702.88,-296.5 702.88,-302.5 696.88,-308.5 690.88,-308.5 690.88,-308.5 139.88,-308.5 139.88,-308.5 133.88,-308.5 127.88,-302.5 127.88,-296.5 127.88,-296.5 127.88,-284.5 127.88,-284.5 127.88,-278.5 133.88,-272.5 139.88,-272.5"/>
<text text-anchor="middle" x="162.5" y="-285.7" font-family="Times New Roman,serif" font-size="14.00">employee</text>
<polyline fill="none" stroke="black" points="197.12,-273 197.12,-308.5"/>
<text text-anchor="middle" x="265.5" y="-285.7" font-family="Times New Roman,serif" font-size="14.00">EmployeeID: decimal</text>
<polyline fill="none" stroke="black" points="333.88,-273 333.88,-308.5"/>
<text text-anchor="middle" x="382.38" y="-285.7" font-family="Times New Roman,serif" font-size="14.00">Name: varchar</text>
<polyline fill="none" stroke="black" points="430.88,-273 430.88,-308.5"/>
<text text-anchor="middle" x="489.5" y="-285.7" font-family="Times New Roman,serif" font-size="14.00">CenterID: decimal</text>
<polyline fill="none" stroke="black" points="548.12,-273 548.12,-308.5"/>
<text text-anchor="middle" x="625.5" y="-285.7" font-family="Times New Roman,serif" font-size="14.00">AccountNumber: varchar</text>
</g>
<!-- employee&#45;&gt;center -->
<g id="edge1" class="edge">
<title>employee&#45;&gt;center</title>
<path fill="none" stroke="black" d="M703.2,-273.17C745.97,-270.19 789.53,-266.94 830.75,-263.5 922.57,-255.84 945.36,-252.12 1037,-242.5 1083.46,-237.62 1133.65,-232.25 1180.33,-227.21"/>
<polygon fill="black" stroke="black" points="1180.41,-230.72 1189.98,-226.16 1179.66,-223.76 1180.41,-230.72"/>
<text text-anchor="middle" x="942.88" y="-264.93" font-family="Times New Roman,serif" font-size="14.00">CenterID &#45;&gt; CenterID</text>
</g>
<!-- equipment -->
<g id="node3" class="node">
<title>equipment</title>
<path fill="none" stroke="black" d="M12,-217.5C12,-217.5 818.75,-217.5 818.75,-217.5 824.75,-217.5 830.75,-223.5 830.75,-229.5 830.75,-229.5 830.75,-241.5 830.75,-241.5 830.75,-247.5 824.75,-253.5 818.75,-253.5 818.75,-253.5 12,-253.5 12,-253.5 6,-253.5 0,-247.5 0,-241.5 0,-241.5 0,-229.5 0,-229.5 0,-223.5 6,-217.5 12,-217.5"/>
<text text-anchor="middle" x="36.88" y="-230.7" font-family="Times New Roman,serif" font-size="14.00">equipment</text>
<polyline fill="none" stroke="black" points="73.75,-218 73.75,-253.5"/>
<text text-anchor="middle" x="129.75" y="-230.7" font-family="Times New Roman,serif" font-size="14.00">Number: decimal</text>
<polyline fill="none" stroke="black" points="185.75,-218 185.75,-253.5"/>
<text text-anchor="middle" x="244.38" y="-230.7" font-family="Times New Roman,serif" font-size="14.00">CenterID: decimal</text>
<polyline fill="none" stroke="black" points="303,-218 303,-253.5"/>
<text text-anchor="middle" x="351.5" y="-230.7" font-family="Times New Roman,serif" font-size="14.00">Brand: varchar</text>
<polyline fill="none" stroke="black" points="400,-218 400,-253.5"/>
<text text-anchor="middle" x="440.62" y="-230.7" font-family="Times New Roman,serif" font-size="14.00">Type: enum</text>
<polyline fill="none" stroke="black" points="481.25,-218 481.25,-253.5"/>
<text text-anchor="middle" x="534.25" y="-230.7" font-family="Times New Roman,serif" font-size="14.00">Weight: decimal</text>
<polyline fill="none" stroke="black" points="587.25,-218 587.25,-253.5"/>
<text text-anchor="middle" x="656" y="-230.7" font-family="Times New Roman,serif" font-size="14.00">DateOFPurchase: date</text>
<polyline fill="none" stroke="black" points="724.75,-218 724.75,-253.5"/>
<text text-anchor="middle" x="777.75" y="-230.7" font-family="Times New Roman,serif" font-size="14.00">Working: tinyint</text>
</g>
<!-- equipment&#45;&gt;center -->
<g id="edge2" class="edge">
<title>equipment&#45;&gt;center</title>
<path fill="none" stroke="black" d="M830.94,-223.21C942.57,-219.9 1058.57,-216.46 1153.46,-213.65"/>
<polygon fill="black" stroke="black" points="1153.52,-217.15 1163.42,-213.35 1153.32,-210.15 1153.52,-217.15"/>
<text text-anchor="middle" x="942.88" y="-225.54" font-family="Times New Roman,serif" font-size="14.00">CenterID &#45;&gt; CenterID</text>
</g>
<!-- member -->
<g id="node4" class="node">
<title>member</title>
<path fill="none" stroke="black" d="M204.88,-137.5C204.88,-137.5 625.88,-137.5 625.88,-137.5 631.88,-137.5 637.88,-143.5 637.88,-149.5 637.88,-149.5 637.88,-161.5 637.88,-161.5 637.88,-167.5 631.88,-173.5 625.88,-173.5 625.88,-173.5 204.88,-173.5 204.88,-173.5 198.88,-173.5 192.88,-167.5 192.88,-161.5 192.88,-161.5 192.88,-149.5 192.88,-149.5 192.88,-143.5 198.88,-137.5 204.88,-137.5"/>
<text text-anchor="middle" x="223.75" y="-150.7" font-family="Times New Roman,serif" font-size="14.00">member</text>
<polyline fill="none" stroke="black" points="254.62,-138 254.62,-173.5"/>
<text text-anchor="middle" x="312.12" y="-150.7" font-family="Times New Roman,serif" font-size="14.00">PersonID: varchar</text>
<polyline fill="none" stroke="black" points="369.62,-138 369.62,-173.5"/>
<text text-anchor="middle" x="428.25" y="-150.7" font-family="Times New Roman,serif" font-size="14.00">CenterID: decimal</text>
<polyline fill="none" stroke="black" points="486.88,-138 486.88,-173.5"/>
<text text-anchor="middle" x="562.38" y="-150.7" font-family="Times New Roman,serif" font-size="14.00">MembershipID: decimal</text>
</g>
<!-- member&#45;&gt;center -->
<g id="edge3" class="edge">
<title>member&#45;&gt;center</title>
<path fill="none" stroke="black" d="M638.09,-167.71C793.93,-176.29 1001.01,-187.69 1153.54,-196.09"/>
<polygon fill="black" stroke="black" points="1153.2,-199.58 1163.38,-196.63 1153.58,-192.59 1153.2,-199.58"/>
<text text-anchor="middle" x="942.88" y="-192.4" font-family="Times New Roman,serif" font-size="14.00">CenterID &#45;&gt; CenterID</text>
</g>
<!-- membership -->
<g id="node5" class="node">
<title>membership</title>
<path fill="none" stroke="black" d="M1194.5,-124.5C1194.5,-124.5 1529,-124.5 1529,-124.5 1535,-124.5 1541,-130.5 1541,-136.5 1541,-136.5 1541,-148.5 1541,-148.5 1541,-154.5 1535,-160.5 1529,-160.5 1529,-160.5 1194.5,-160.5 1194.5,-160.5 1188.5,-160.5 1182.5,-154.5 1182.5,-148.5 1182.5,-148.5 1182.5,-136.5 1182.5,-136.5 1182.5,-130.5 1188.5,-124.5 1194.5,-124.5"/>
<text text-anchor="middle" x="1224.62" y="-137.7" font-family="Times New Roman,serif" font-size="14.00">membership</text>
<polyline fill="none" stroke="black" points="1266.75,-125 1266.75,-160.5"/>
<text text-anchor="middle" x="1342.25" y="-137.7" font-family="Times New Roman,serif" font-size="14.00">MembershipID: decimal</text>
<polyline fill="none" stroke="black" points="1417.75,-125 1417.75,-160.5"/>
<text text-anchor="middle" x="1479.38" y="-137.7" font-family="Times New Roman,serif" font-size="14.00">ProductID: decimal</text>
</g>
<!-- member&#45;&gt;membership -->
<g id="edge4" class="edge">
<title>member&#45;&gt;membership</title>
<path fill="none" stroke="black" d="M638.09,-152.45C799.92,-150.22 1016.99,-147.23 1170.86,-145.11"/>
<polygon fill="black" stroke="black" points="1170.83,-148.61 1180.78,-144.98 1170.73,-141.62 1170.83,-148.61"/>
<text text-anchor="middle" x="942.88" y="-152.59" font-family="Times New Roman,serif" font-size="14.00">MembershipID &#45;&gt; MembershipID</text>
</g>
<!-- person -->
<g id="node6" class="node">
<title>person</title>
<path fill="none" stroke="black" d="M1067,-47.5C1067,-47.5 1656.5,-47.5 1656.5,-47.5 1662.5,-47.5 1668.5,-53.5 1668.5,-59.5 1668.5,-59.5 1668.5,-71.5 1668.5,-71.5 1668.5,-77.5 1662.5,-83.5 1656.5,-83.5 1656.5,-83.5 1067,-83.5 1067,-83.5 1061,-83.5 1055,-77.5 1055,-71.5 1055,-71.5 1055,-59.5 1055,-59.5 1055,-53.5 1061,-47.5 1067,-47.5"/>
<text text-anchor="middle" x="1081" y="-60.7" font-family="Times New Roman,serif" font-size="14.00">person</text>
<polyline fill="none" stroke="black" points="1107,-48 1107,-83.5"/>
<text text-anchor="middle" x="1164.5" y="-60.7" font-family="Times New Roman,serif" font-size="14.00">PersonID: varchar</text>
<polyline fill="none" stroke="black" points="1222,-48 1222,-83.5"/>
<text text-anchor="middle" x="1299.38" y="-60.7" font-family="Times New Roman,serif" font-size="14.00">AccountNumber: varchar</text>
<polyline fill="none" stroke="black" points="1376.75,-48 1376.75,-83.5"/>
<text text-anchor="middle" x="1423.75" y="-60.7" font-family="Times New Roman,serif" font-size="14.00">name: varchar</text>
<polyline fill="none" stroke="black" points="1470.75,-48 1470.75,-83.5"/>
<text text-anchor="middle" x="1524.88" y="-60.7" font-family="Times New Roman,serif" font-size="14.00">Address: varchar</text>
<polyline fill="none" stroke="black" points="1579,-48 1579,-83.5"/>
<text text-anchor="middle" x="1623.75" y="-60.7" font-family="Times New Roman,serif" font-size="14.00">CPR: varchar</text>
</g>
<!-- member&#45;&gt;person -->
<g id="edge5" class="edge">
<title>member&#45;&gt;person</title>
<path fill="none" stroke="black" d="M496.72,-137C583.13,-118.02 724.84,-89.56 848.75,-77 911.57,-70.63 978.94,-66.91 1043.5,-64.86"/>
<polygon fill="black" stroke="black" points="1043.27,-68.37 1053.16,-64.57 1043.06,-61.37 1043.27,-68.37"/>
<text text-anchor="middle" x="942.88" y="-80.2" font-family="Times New Roman,serif" font-size="14.00">PersonID &#45;&gt; PersonID</text>
</g>
<!-- product -->
<g id="node7" class="node">
<title>product</title>
<path fill="none" stroke="black" d="M1849.25,-0.5C1849.25,-0.5 2197.5,-0.5 2197.5,-0.5 2203.5,-0.5 2209.5,-6.5 2209.5,-12.5 2209.5,-12.5 2209.5,-24.5 2209.5,-24.5 2209.5,-30.5 2203.5,-36.5 2197.5,-36.5 2197.5,-36.5 1849.25,-36.5 1849.25,-36.5 1843.25,-36.5 1837.25,-30.5 1837.25,-24.5 1837.25,-24.5 1837.25,-12.5 1837.25,-12.5 1837.25,-6.5 1843.25,-0.5 1849.25,-0.5"/>
<text text-anchor="middle" x="1865.88" y="-13.7" font-family="Times New Roman,serif" font-size="14.00">product</text>
<polyline fill="none" stroke="black" points="1894.5,-1 1894.5,-36.5"/>
<text text-anchor="middle" x="1956.12" y="-13.7" font-family="Times New Roman,serif" font-size="14.00">ProductID: decimal</text>
<polyline fill="none" stroke="black" points="2017.75,-1 2017.75,-36.5"/>
<text text-anchor="middle" x="2066.25" y="-13.7" font-family="Times New Roman,serif" font-size="14.00">Name: varchar</text>
<polyline fill="none" stroke="black" points="2114.75,-1 2114.75,-36.5"/>
<text text-anchor="middle" x="2162.12" y="-13.7" font-family="Times New Roman,serif" font-size="14.00">Price: decimal</text>
</g>
<!-- membership&#45;&gt;product -->
<g id="edge6" class="edge">
<title>membership&#45;&gt;product</title>
<path fill="none" stroke="black" d="M1486.84,-124.05C1542.5,-115.41 1608.91,-104.58 1668.5,-93.5 1757.58,-76.93 1858.66,-55.22 1929.91,-39.42"/>
<polygon fill="black" stroke="black" points="1930.6,-42.85 1939.61,-37.26 1929.09,-36.02 1930.6,-42.85"/>
<text text-anchor="middle" x="1752.88" y="-93.1" font-family="Times New Roman,serif" font-size="14.00">ProductID &#45;&gt; ProductID</text>
</g>
<!-- transaction -->
<g id="node8" class="node">
<title>transaction</title>
<path fill="none" stroke="black" d="M30.88,-17.5C30.88,-17.5 799.88,-17.5 799.88,-17.5 805.88,-17.5 811.88,-23.5 811.88,-29.5 811.88,-29.5 811.88,-41.5 811.88,-41.5 811.88,-47.5 805.88,-53.5 799.88,-53.5 799.88,-53.5 30.88,-53.5 30.88,-53.5 24.88,-53.5 18.88,-47.5 18.88,-41.5 18.88,-41.5 18.88,-29.5 18.88,-29.5 18.88,-23.5 24.88,-17.5 30.88,-17.5"/>
<text text-anchor="middle" x="56.5" y="-30.7" font-family="Times New Roman,serif" font-size="14.00">transaction</text>
<polyline fill="none" stroke="black" points="94.12,-18 94.12,-53.5"/>
<text text-anchor="middle" x="166.62" y="-30.7" font-family="Times New Roman,serif" font-size="14.00">TransactionID: decimal</text>
<polyline fill="none" stroke="black" points="239.12,-18 239.12,-53.5"/>
<text text-anchor="middle" x="296.62" y="-30.7" font-family="Times New Roman,serif" font-size="14.00">PersonID: varchar</text>
<polyline fill="none" stroke="black" points="354.12,-18 354.12,-53.5"/>
<text text-anchor="middle" x="415.75" y="-30.7" font-family="Times New Roman,serif" font-size="14.00">ProductID: decimal</text>
<polyline fill="none" stroke="black" points="477.38,-18 477.38,-53.5"/>
<text text-anchor="middle" x="536" y="-30.7" font-family="Times New Roman,serif" font-size="14.00">CenterID: decimal</text>
<polyline fill="none" stroke="black" points="594.62,-18 594.62,-53.5"/>
<text text-anchor="middle" x="642" y="-30.7" font-family="Times New Roman,serif" font-size="14.00">Price: decimal</text>
<polyline fill="none" stroke="black" points="689.38,-18 689.38,-53.5"/>
<text text-anchor="middle" x="750.62" y="-30.7" font-family="Times New Roman,serif" font-size="14.00">BuyTime: datetime</text>
</g>
<!-- transaction&#45;&gt;center -->
<g id="edge9" class="edge">
<title>transaction&#45;&gt;center</title>
<path fill="none" stroke="black" d="M553.35,-53.99C733.21,-78.51 1027.48,-119.57 1037,-127 1053.5,-139.87 1038.34,-157.85 1055,-170.5 1083.56,-192.18 1118.14,-205.05 1153.62,-212.22"/>
<polygon fill="black" stroke="black" points="1152.7,-215.61 1163.17,-213.99 1153.97,-208.73 1152.7,-215.61"/>
<text text-anchor="middle" x="942.88" y="-130.2" font-family="Times New Roman,serif" font-size="14.00">CenterID &#45;&gt; CenterID</text>
</g>
<!-- transaction&#45;&gt;person -->
<g id="edge7" class="edge">
<title>transaction&#45;&gt;person</title>
<path fill="none" stroke="black" d="M812.13,-31.41C886.86,-32.07 964.34,-33.72 1037,-37 1080.3,-38.95 1126.76,-42.3 1170.59,-46.03"/>
<polygon fill="black" stroke="black" points="1170.2,-49.51 1180.46,-46.88 1170.8,-42.54 1170.2,-49.51"/>
<text text-anchor="middle" x="942.88" y="-40.2" font-family="Times New Roman,serif" font-size="14.00">PersonID &#45;&gt; PersonID</text>
</g>
<!-- transaction&#45;&gt;product -->
<g id="edge8" class="edge">
<title>transaction&#45;&gt;product</title>
<path fill="none" stroke="black" d="M811.96,-26.06C892.38,-24.44 976.41,-22.97 1055,-22 1321.87,-18.7 1630.19,-18.15 1825.66,-18.2"/>
<polygon fill="black" stroke="black" points="1825.4,-21.7 1835.4,-18.21 1825.4,-14.7 1825.4,-21.7"/>
<text text-anchor="middle" x="1361.75" y="-25.2" font-family="Times New Roman,serif" font-size="14.00">ProductID &#45;&gt; ProductID</text>
</g>
</g>
</svg>
