<?xml version="1.0" encoding="UTF-8" standalone="no"?>
<!DOCTYPE svg PUBLIC "-//W3C//DTD SVG 1.1//EN"
 "http://www.w3.org/Graphics/SVG/1.1/DTD/svg11.dtd">
<!-- Generated by graphviz version 12.2.1 (20241206.2353)
 -->
<!-- Title: ERD Pages: 1 -->
<svg width="3691pt" height="1020pt"
 viewBox="0.00 0.00 3691.00 1020.00" xmlns="http://www.w3.org/2000/svg" xmlns:xlink="http://www.w3.org/1999/xlink">
<g id="graph0" class="graph" transform="scale(1 1) rotate(0) translate(4 1016)">
<title>ERD</title>
<polygon fill="white" stroke="none" points="-4,4 -4,-1016 3687,-1016 3687,4 -4,4"/>
<!-- api_key -->
<g id="node1" class="node">
<title>api_key</title>
<path fill="none" stroke="black" d="M466.12,-0.5C466.12,-0.5 747.38,-0.5 747.38,-0.5 753.38,-0.5 759.38,-6.5 759.38,-12.5 759.38,-12.5 759.38,-24.5 759.38,-24.5 759.38,-30.5 753.38,-36.5 747.38,-36.5 747.38,-36.5 466.12,-36.5 466.12,-36.5 460.12,-36.5 454.12,-30.5 454.12,-24.5 454.12,-24.5 454.12,-12.5 454.12,-12.5 454.12,-6.5 460.12,-0.5 466.12,-0.5"/>
<text text-anchor="middle" x="483.5" y="-13.7" font-family="Times New Roman,serif" font-size="14.00">api_key</text>
<polyline fill="none" stroke="black" points="512.88,-1 512.88,-36.5"/>
<text text-anchor="middle" x="574.5" y="-13.7" font-family="Times New Roman,serif" font-size="14.00">stored_key: varchar</text>
<polyline fill="none" stroke="black" points="636.12,-1 636.12,-36.5"/>
<text text-anchor="middle" x="697.75" y="-13.7" font-family="Times New Roman,serif" font-size="14.00">last_updated: bigint</text>
</g>
<!-- course -->
<g id="node2" class="node">
<title>course</title>
<path fill="none" stroke="black" d="M1478.25,-195.5C1478.25,-195.5 2895,-195.5 2895,-195.5 2901,-195.5 2907,-201.5 2907,-207.5 2907,-207.5 2907,-219.5 2907,-219.5 2907,-225.5 2901,-231.5 2895,-231.5 2895,-231.5 1478.25,-231.5 1478.25,-231.5 1472.25,-231.5 1466.25,-225.5 1466.25,-219.5 1466.25,-219.5 1466.25,-207.5 1466.25,-207.5 1466.25,-201.5 1472.25,-195.5 1478.25,-195.5"/>
<text text-anchor="middle" x="1491.88" y="-208.7" font-family="Times New Roman,serif" font-size="14.00">course</text>
<polyline fill="none" stroke="black" points="1517.5,-196 1517.5,-231.5"/>
<text text-anchor="middle" x="1571.25" y="-208.7" font-family="Times New Roman,serif" font-size="14.00">course_id: bigint</text>
<polyline fill="none" stroke="black" points="1625,-196 1625,-231.5"/>
<text text-anchor="middle" x="1659.62" y="-208.7" font-family="Times New Roman,serif" font-size="14.00">ects: float</text>
<polyline fill="none" stroke="black" points="1694.25,-196 1694.25,-231.5"/>
<text text-anchor="middle" x="1738.25" y="-208.7" font-family="Times New Roman,serif" font-size="14.00">kuid: varchar</text>
<polyline fill="none" stroke="black" points="1782.25,-196 1782.25,-231.5"/>
<text text-anchor="middle" x="1827.38" y="-208.7" font-family="Times New Roman,serif" font-size="14.00">level: varchar</text>
<polyline fill="none" stroke="black" points="1872.5,-196 1872.5,-231.5"/>
<text text-anchor="middle" x="1940.5" y="-208.7" font-family="Times New Roman,serif" font-size="14.00">course_name: varchar</text>
<polyline fill="none" stroke="black" points="2008.5,-196 2008.5,-231.5"/>
<text text-anchor="middle" x="2064.12" y="-208.7" font-family="Times New Roman,serif" font-size="14.00">schedule: varchar</text>
<polyline fill="none" stroke="black" points="2119.75,-196 2119.75,-231.5"/>
<text text-anchor="middle" x="2176.5" y="-208.7" font-family="Times New Roman,serif" font-size="14.00">student_count: int</text>
<polyline fill="none" stroke="black" points="2233.25,-196 2233.25,-231.5"/>
<text text-anchor="middle" x="2275.75" y="-208.7" font-family="Times New Roman,serif" font-size="14.00">weight: float</text>
<polyline fill="none" stroke="black" points="2318.25,-196 2318.25,-231.5"/>
<text text-anchor="middle" x="2348.75" y="-208.7" font-family="Times New Roman,serif" font-size="14.00">year: int</text>
<polyline fill="none" stroke="black" points="2379.25,-196 2379.25,-231.5"/>
<text text-anchor="middle" x="2432.62" y="-208.7" font-family="Times New Roman,serif" font-size="14.00">period_id: bigint</text>
<polyline fill="none" stroke="black" points="2486,-196 2486,-231.5"/>
<text text-anchor="middle" x="2522.12" y="-208.7" font-family="Times New Roman,serif" font-size="14.00">period: int</text>
<polyline fill="none" stroke="black" points="2558.25,-196 2558.25,-231.5"/>
<text text-anchor="middle" x="2616.12" y="-208.7" font-family="Times New Roman,serif" font-size="14.00">external_id: bigint</text>
<polyline fill="none" stroke="black" points="2674,-196 2674,-231.5"/>
<text text-anchor="middle" x="2726.62" y="-208.7" font-family="Times New Roman,serif" font-size="14.00">tenant_id: bigint</text>
<polyline fill="none" stroke="black" points="2779.25,-196 2779.25,-231.5"/>
<text text-anchor="middle" x="2843.12" y="-208.7" font-family="Times New Roman,serif" font-size="14.00">short_name: varchar</text>
</g>
<!-- period -->
<g id="node7" class="node">
<title>period</title>
<path fill="none" stroke="black" d="M3286.38,-195.5C3286.38,-195.5 3554.88,-195.5 3554.88,-195.5 3560.88,-195.5 3566.88,-201.5 3566.88,-207.5 3566.88,-207.5 3566.88,-219.5 3566.88,-219.5 3566.88,-225.5 3560.88,-231.5 3554.88,-231.5 3554.88,-231.5 3286.38,-231.5 3286.38,-231.5 3280.38,-231.5 3274.38,-225.5 3274.38,-219.5 3274.38,-219.5 3274.38,-207.5 3274.38,-207.5 3274.38,-201.5 3280.38,-195.5 3286.38,-195.5"/>
<text text-anchor="middle" x="3299.62" y="-208.7" font-family="Times New Roman,serif" font-size="14.00">period</text>
<polyline fill="none" stroke="black" points="3324.88,-196 3324.88,-231.5"/>
<text text-anchor="middle" x="3378.25" y="-208.7" font-family="Times New Roman,serif" font-size="14.00">period_id: bigint</text>
<polyline fill="none" stroke="black" points="3431.62,-196 3431.62,-231.5"/>
<text text-anchor="middle" x="3499.25" y="-208.7" font-family="Times New Roman,serif" font-size="14.00">period_name: varchar</text>
</g>
<!-- course&#45;&gt;period -->
<g id="edge1" class="edge">
<title>course&#45;&gt;period</title>
<path fill="none" stroke="black" d="M2907.4,-213.5C3041.33,-213.5 3168.52,-213.5 3262.65,-213.5"/>
<polygon fill="black" stroke="black" points="3262.45,-217 3272.45,-213.5 3262.45,-210 3262.45,-217"/>
<text text-anchor="middle" x="3074.62" y="-216.7" font-family="Times New Roman,serif" font-size="14.00">period_id &#45;&gt; period_id</text>
</g>
<!-- course_info -->
<g id="node3" class="node">
<title>course_info</title>
<path fill="none" stroke="black" d="M12,-260.5C12,-260.5 1201.5,-260.5 1201.5,-260.5 1207.5,-260.5 1213.5,-266.5 1213.5,-272.5 1213.5,-272.5 1213.5,-284.5 1213.5,-284.5 1213.5,-290.5 1207.5,-296.5 1201.5,-296.5 1201.5,-296.5 12,-296.5 12,-296.5 6,-296.5 0,-290.5 0,-284.5 0,-284.5 0,-272.5 0,-272.5 0,-266.5 6,-260.5 12,-260.5"/>
<text text-anchor="middle" x="39.88" y="-273.7" font-family="Times New Roman,serif" font-size="14.00">course_info</text>
<polyline fill="none" stroke="black" points="79.75,-261 79.75,-296.5"/>
<text text-anchor="middle" x="133.5" y="-273.7" font-family="Times New Roman,serif" font-size="14.00">course_id: bigint</text>
<polyline fill="none" stroke="black" points="187.25,-261 187.25,-296.5"/>
<text text-anchor="middle" x="255.25" y="-273.7" font-family="Times New Roman,serif" font-size="14.00">course_name: varchar</text>
<polyline fill="none" stroke="black" points="323.25,-261 323.25,-296.5"/>
<text text-anchor="middle" x="357.88" y="-273.7" font-family="Times New Roman,serif" font-size="14.00">ects: float</text>
<polyline fill="none" stroke="black" points="392.5,-261 392.5,-296.5"/>
<text text-anchor="middle" x="435" y="-273.7" font-family="Times New Roman,serif" font-size="14.00">weight: float</text>
<polyline fill="none" stroke="black" points="477.5,-261 477.5,-296.5"/>
<text text-anchor="middle" x="554.5" y="-273.7" font-family="Times New Roman,serif" font-size="14.00">percentage_filled: double</text>
<polyline fill="none" stroke="black" points="631.5,-261 631.5,-296.5"/>
<text text-anchor="middle" x="698.38" y="-273.7" font-family="Times New Roman,serif" font-size="14.00">teachers: mediumtext</text>
<polyline fill="none" stroke="black" points="765.25,-261 765.25,-296.5"/>
<text text-anchor="middle" x="801.38" y="-273.7" font-family="Times New Roman,serif" font-size="14.00">period: int</text>
<polyline fill="none" stroke="black" points="837.5,-261 837.5,-296.5"/>
<text text-anchor="middle" x="893.12" y="-273.7" font-family="Times New Roman,serif" font-size="14.00">schedule: varchar</text>
<polyline fill="none" stroke="black" points="948.75,-261 948.75,-296.5"/>
<text text-anchor="middle" x="979.25" y="-273.7" font-family="Times New Roman,serif" font-size="14.00">year: int</text>
<polyline fill="none" stroke="black" points="1009.75,-261 1009.75,-296.5"/>
<text text-anchor="middle" x="1054.88" y="-273.7" font-family="Times New Roman,serif" font-size="14.00">level: varchar</text>
<polyline fill="none" stroke="black" points="1100,-261 1100,-296.5"/>
<text text-anchor="middle" x="1156.75" y="-273.7" font-family="Times New Roman,serif" font-size="14.00">student_count: int</text>
</g>
<!-- course_requires_skill -->
<g id="node4" class="node">
<title>course_requires_skill</title>
<path fill="none" stroke="black" d="M451.5,-145.5C451.5,-145.5 762,-145.5 762,-145.5 768,-145.5 774,-151.5 774,-157.5 774,-157.5 774,-169.5 774,-169.5 774,-175.5 768,-181.5 762,-181.5 762,-181.5 451.5,-181.5 451.5,-181.5 445.5,-181.5 439.5,-175.5 439.5,-169.5 439.5,-169.5 439.5,-157.5 439.5,-157.5 439.5,-151.5 445.5,-145.5 451.5,-145.5"/>
<text text-anchor="middle" x="505.25" y="-158.7" font-family="Times New Roman,serif" font-size="14.00">course_requires_skill</text>
<polyline fill="none" stroke="black" points="571,-146 571,-181.5"/>
<text text-anchor="middle" x="624.75" y="-158.7" font-family="Times New Roman,serif" font-size="14.00">course_id: bigint</text>
<polyline fill="none" stroke="black" points="678.5,-146 678.5,-181.5"/>
<text text-anchor="middle" x="726.25" y="-158.7" font-family="Times New Roman,serif" font-size="14.00">skill_id: bigint</text>
</g>
<!-- course_requires_skill&#45;&gt;course -->
<g id="edge2" class="edge">
<title>course_requires_skill&#45;&gt;course</title>
<path fill="none" stroke="black" d="M774.18,-164.52C927.48,-165.82 1161.24,-168.7 1364.25,-175 1517.48,-179.75 1686.69,-187.3 1831.52,-194.45"/>
<polygon fill="black" stroke="black" points="1831.11,-197.93 1841.27,-194.93 1831.46,-190.94 1831.11,-197.93"/>
<text text-anchor="middle" x="1297.88" y="-178.2" font-family="Times New Roman,serif" font-size="14.00">course_id &#45;&gt; course_id</text>
</g>
<!-- skill -->
<g id="node14" class="node">
<title>skill</title>
<path fill="none" stroke="black" d="M2016.62,-40.5C2016.62,-40.5 2356.62,-40.5 2356.62,-40.5 2362.62,-40.5 2368.62,-46.5 2368.62,-52.5 2368.62,-52.5 2368.62,-64.5 2368.62,-64.5 2368.62,-70.5 2362.62,-76.5 2356.62,-76.5 2356.62,-76.5 2016.62,-76.5 2016.62,-76.5 2010.62,-76.5 2004.62,-70.5 2004.62,-64.5 2004.62,-64.5 2004.62,-52.5 2004.62,-52.5 2004.62,-46.5 2010.62,-40.5 2016.62,-40.5"/>
<text text-anchor="middle" x="2024.25" y="-53.7" font-family="Times New Roman,serif" font-size="14.00">skill</text>
<polyline fill="none" stroke="black" points="2043.88,-41 2043.88,-76.5"/>
<text text-anchor="middle" x="2091.62" y="-53.7" font-family="Times New Roman,serif" font-size="14.00">skill_id: bigint</text>
<polyline fill="none" stroke="black" points="2139.38,-41 2139.38,-76.5"/>
<text text-anchor="middle" x="2201.38" y="-53.7" font-family="Times New Roman,serif" font-size="14.00">skill_name: varchar</text>
<polyline fill="none" stroke="black" points="2263.38,-41 2263.38,-76.5"/>
<text text-anchor="middle" x="2316" y="-53.7" font-family="Times New Roman,serif" font-size="14.00">tenant_id: bigint</text>
</g>
<!-- course_requires_skill&#45;&gt;skill -->
<g id="edge3" class="edge">
<title>course_requires_skill&#45;&gt;skill</title>
<path fill="none" stroke="black" d="M774.5,-167.95C965.93,-170.32 1266.16,-164.83 1364.25,-111.5 1375.96,-105.13 1370.43,-93.68 1382.25,-87.5 1614.91,34.13 1939.43,-7.33 2095.18,-37.88"/>
<polygon fill="black" stroke="black" points="2094.12,-41.23 2104.62,-39.76 2095.49,-34.37 2094.12,-41.23"/>
<text text-anchor="middle" x="1297.88" y="-148.37" font-family="Times New Roman,serif" font-size="14.00">skill_id &#45;&gt; skill_id</text>
</g>
<!-- course_seq -->
<g id="node5" class="node">
<title>course_seq</title>
<path fill="none" stroke="black" d="M530,-315.5C530,-315.5 683.5,-315.5 683.5,-315.5 689.5,-315.5 695.5,-321.5 695.5,-327.5 695.5,-327.5 695.5,-339.5 695.5,-339.5 695.5,-345.5 689.5,-351.5 683.5,-351.5 683.5,-351.5 530,-351.5 530,-351.5 524,-351.5 518,-345.5 518,-339.5 518,-339.5 518,-327.5 518,-327.5 518,-321.5 524,-315.5 530,-315.5"/>
<text text-anchor="middle" x="556" y="-328.7" font-family="Times New Roman,serif" font-size="14.00">course_seq</text>
<polyline fill="none" stroke="black" points="594,-316 594,-351.5"/>
<text text-anchor="middle" x="644.75" y="-328.7" font-family="Times New Roman,serif" font-size="14.00">next_val: bigint</text>
</g>
<!-- group_seq -->
<g id="node6" class="node">
<title>group_seq</title>
<path fill="none" stroke="black" d="M531.88,-370.5C531.88,-370.5 681.62,-370.5 681.62,-370.5 687.62,-370.5 693.62,-376.5 693.62,-382.5 693.62,-382.5 693.62,-394.5 693.62,-394.5 693.62,-400.5 687.62,-406.5 681.62,-406.5 681.62,-406.5 531.88,-406.5 531.88,-406.5 525.88,-406.5 519.88,-400.5 519.88,-394.5 519.88,-394.5 519.88,-382.5 519.88,-382.5 519.88,-376.5 525.88,-370.5 531.88,-370.5"/>
<text text-anchor="middle" x="556" y="-383.7" font-family="Times New Roman,serif" font-size="14.00">group_seq</text>
<polyline fill="none" stroke="black" points="592.12,-371 592.12,-406.5"/>
<text text-anchor="middle" x="642.88" y="-383.7" font-family="Times New Roman,serif" font-size="14.00">next_val: bigint</text>
</g>
<!-- period_seq -->
<g id="node8" class="node">
<title>period_seq</title>
<path fill="none" stroke="black" d="M530.38,-425.5C530.38,-425.5 683.12,-425.5 683.12,-425.5 689.12,-425.5 695.12,-431.5 695.12,-437.5 695.12,-437.5 695.12,-449.5 695.12,-449.5 695.12,-455.5 689.12,-461.5 683.12,-461.5 683.12,-461.5 530.38,-461.5 530.38,-461.5 524.38,-461.5 518.38,-455.5 518.38,-449.5 518.38,-449.5 518.38,-437.5 518.38,-437.5 518.38,-431.5 524.38,-425.5 530.38,-425.5"/>
<text text-anchor="middle" x="556" y="-438.7" font-family="Times New Roman,serif" font-size="14.00">period_seq</text>
<polyline fill="none" stroke="black" points="593.62,-426 593.62,-461.5"/>
<text text-anchor="middle" x="644.38" y="-438.7" font-family="Times New Roman,serif" font-size="14.00">next_val: bigint</text>
</g>
<!-- responsibility -->
<g id="node9" class="node">
<title>responsibility</title>
<path fill="none" stroke="black" d="M278.25,-205.5C278.25,-205.5 935.25,-205.5 935.25,-205.5 941.25,-205.5 947.25,-211.5 947.25,-217.5 947.25,-217.5 947.25,-229.5 947.25,-229.5 947.25,-235.5 941.25,-241.5 935.25,-241.5 935.25,-241.5 278.25,-241.5 278.25,-241.5 272.25,-241.5 266.25,-235.5 266.25,-229.5 266.25,-229.5 266.25,-217.5 266.25,-217.5 266.25,-211.5 272.25,-205.5 278.25,-205.5"/>
<text text-anchor="middle" x="311" y="-218.7" font-family="Times New Roman,serif" font-size="14.00">responsibility</text>
<polyline fill="none" stroke="black" points="355.75,-206 355.75,-241.5"/>
<text text-anchor="middle" x="428.62" y="-218.7" font-family="Times New Roman,serif" font-size="14.00">responsibility_id: bigint</text>
<polyline fill="none" stroke="black" points="501.5,-206 501.5,-241.5"/>
<text text-anchor="middle" x="562.38" y="-218.7" font-family="Times New Roman,serif" font-size="14.00">responsibility: float</text>
<polyline fill="none" stroke="black" points="623.25,-206 623.25,-241.5"/>
<text text-anchor="middle" x="677" y="-218.7" font-family="Times New Roman,serif" font-size="14.00">course_id: bigint</text>
<polyline fill="none" stroke="black" points="730.75,-206 730.75,-241.5"/>
<text text-anchor="middle" x="786.38" y="-218.7" font-family="Times New Roman,serif" font-size="14.00">teacher_id: bigint</text>
<polyline fill="none" stroke="black" points="842,-206 842,-241.5"/>
<text text-anchor="middle" x="894.62" y="-218.7" font-family="Times New Roman,serif" font-size="14.00">tenant_id: bigint</text>
</g>
<!-- responsibility&#45;&gt;course -->
<g id="edge4" class="edge">
<title>responsibility&#45;&gt;course</title>
<path fill="none" stroke="black" d="M947.65,-228.65C1039.76,-229.83 1139.45,-230.91 1231.5,-231.5 1303.94,-231.96 1379.47,-231.75 1454.92,-231.06"/>
<polygon fill="black" stroke="black" points="1454.57,-234.57 1464.53,-230.97 1454.5,-227.57 1454.57,-234.57"/>
<text text-anchor="middle" x="1297.88" y="-234.95" font-family="Times New Roman,serif" font-size="14.00">course_id &#45;&gt; course_id</text>
</g>
<!-- teacher -->
<g id="node16" class="node">
<title>teacher</title>
<path fill="none" stroke="black" d="M1394.25,-97.5C1394.25,-97.5 2979,-97.5 2979,-97.5 2985,-97.5 2991,-103.5 2991,-109.5 2991,-109.5 2991,-121.5 2991,-121.5 2991,-127.5 2985,-133.5 2979,-133.5 2979,-133.5 1394.25,-133.5 1394.25,-133.5 1388.25,-133.5 1382.25,-127.5 1382.25,-121.5 1382.25,-121.5 1382.25,-109.5 1382.25,-109.5 1382.25,-103.5 1388.25,-97.5 1394.25,-97.5"/>
<text text-anchor="middle" x="1409.75" y="-110.7" font-family="Times New Roman,serif" font-size="14.00">teacher</text>
<polyline fill="none" stroke="black" points="1437.25,-98 1437.25,-133.5"/>
<text text-anchor="middle" x="1492.88" y="-110.7" font-family="Times New Roman,serif" font-size="14.00">teacher_id: bigint</text>
<polyline fill="none" stroke="black" points="1548.5,-98 1548.5,-133.5"/>
<text text-anchor="middle" x="1592.5" y="-110.7" font-family="Times New Roman,serif" font-size="14.00">kuid: varchar</text>
<polyline fill="none" stroke="black" points="1636.5,-98 1636.5,-133.5"/>
<text text-anchor="middle" x="1683.12" y="-110.7" font-family="Times New Roman,serif" font-size="14.00">birth_year: int</text>
<polyline fill="none" stroke="black" points="1729.75,-98 1729.75,-133.5"/>
<text text-anchor="middle" x="1780.12" y="-110.7" font-family="Times New Roman,serif" font-size="14.00">gender: varchar</text>
<polyline fill="none" stroke="black" points="1830.5,-98 1830.5,-133.5"/>
<text text-anchor="middle" x="1890.25" y="-110.7" font-family="Times New Roman,serif" font-size="14.00">full_name: varchar</text>
<polyline fill="none" stroke="black" points="1950,-98 1950,-133.5"/>
<text text-anchor="middle" x="2020.62" y="-110.7" font-family="Times New Roman,serif" font-size="14.00">percentage_hired: float</text>
<polyline fill="none" stroke="black" points="2091.25,-98 2091.25,-133.5"/>
<text text-anchor="middle" x="2130.38" y="-110.7" font-family="Times New Roman,serif" font-size="14.00">quota: float</text>
<polyline fill="none" stroke="black" points="2169.5,-98 2169.5,-133.5"/>
<text text-anchor="middle" x="2245.38" y="-110.7" font-family="Times New Roman,serif" font-size="14.00">teaching_reduction: float</text>
<polyline fill="none" stroke="black" points="2321.25,-98 2321.25,-133.5"/>
<text text-anchor="middle" x="2377.62" y="-110.7" font-family="Times New Roman,serif" font-size="14.00">group_id: varchar</text>
<polyline fill="none" stroke="black" points="2434,-98 2434,-133.5"/>
<text text-anchor="middle" x="2491.88" y="-110.7" font-family="Times New Roman,serif" font-size="14.00">external_id: bigint</text>
<polyline fill="none" stroke="black" points="2549.75,-98 2549.75,-133.5"/>
<text text-anchor="middle" x="2593.75" y="-110.7" font-family="Times New Roman,serif" font-size="14.00">phd_year: int</text>
<polyline fill="none" stroke="black" points="2637.75,-98 2637.75,-133.5"/>
<text text-anchor="middle" x="2706.5" y="-110.7" font-family="Times New Roman,serif" font-size="14.00">professor_level: enum</text>
<polyline fill="none" stroke="black" points="2775.25,-98 2775.25,-133.5"/>
<text text-anchor="middle" x="2830.5" y="-110.7" font-family="Times New Roman,serif" font-size="14.00">section_id: bigint</text>
<polyline fill="none" stroke="black" points="2885.75,-98 2885.75,-133.5"/>
<text text-anchor="middle" x="2938.38" y="-110.7" font-family="Times New Roman,serif" font-size="14.00">tenant_id: bigint</text>
</g>
<!-- responsibility&#45;&gt;teacher -->
<g id="edge5" class="edge">
<title>responsibility&#45;&gt;teacher</title>
<path fill="none" stroke="black" d="M947.37,-225.63C1078.32,-222.15 1228.89,-212.87 1364.25,-191.5 1372.45,-190.2 1374.08,-187.98 1382.25,-186.5 1518.85,-161.71 1670.14,-145.47 1804.27,-134.88"/>
<polygon fill="black" stroke="black" points="1804.33,-138.38 1814.03,-134.12 1803.79,-131.4 1804.33,-138.38"/>
<text text-anchor="middle" x="1297.88" y="-210.6" font-family="Times New Roman,serif" font-size="14.00">teacher_id &#45;&gt; teacher_id</text>
</g>
<!-- responsibility_seq -->
<g id="node10" class="node">
<title>responsibility_seq</title>
<path fill="none" stroke="black" d="M510.88,-480.5C510.88,-480.5 702.62,-480.5 702.62,-480.5 708.62,-480.5 714.62,-486.5 714.62,-492.5 714.62,-492.5 714.62,-504.5 714.62,-504.5 714.62,-510.5 708.62,-516.5 702.62,-516.5 702.62,-516.5 510.88,-516.5 510.88,-516.5 504.88,-516.5 498.88,-510.5 498.88,-504.5 498.88,-504.5 498.88,-492.5 498.88,-492.5 498.88,-486.5 504.88,-480.5 510.88,-480.5"/>
<text text-anchor="middle" x="556" y="-493.7" font-family="Times New Roman,serif" font-size="14.00">responsibility_seq</text>
<polyline fill="none" stroke="black" points="613.12,-481 613.12,-516.5"/>
<text text-anchor="middle" x="663.88" y="-493.7" font-family="Times New Roman,serif" font-size="14.00">next_val: bigint</text>
</g>
<!-- section -->
<g id="node11" class="node">
<title>section</title>
<path fill="none" stroke="black" d="M3170.25,-97.5C3170.25,-97.5 3671,-97.5 3671,-97.5 3677,-97.5 3683,-103.5 3683,-109.5 3683,-109.5 3683,-121.5 3683,-121.5 3683,-127.5 3677,-133.5 3671,-133.5 3671,-133.5 3170.25,-133.5 3170.25,-133.5 3164.25,-133.5 3158.25,-127.5 3158.25,-121.5 3158.25,-121.5 3158.25,-109.5 3158.25,-109.5 3158.25,-103.5 3164.25,-97.5 3170.25,-97.5"/>
<text text-anchor="middle" x="3185.38" y="-110.7" font-family="Times New Roman,serif" font-size="14.00">section</text>
<polyline fill="none" stroke="black" points="3212.5,-98 3212.5,-133.5"/>
<text text-anchor="middle" x="3267.75" y="-110.7" font-family="Times New Roman,serif" font-size="14.00">section_id: bigint</text>
<polyline fill="none" stroke="black" points="3323,-98 3323,-133.5"/>
<text text-anchor="middle" x="3380.88" y="-110.7" font-family="Times New Roman,serif" font-size="14.00">external_id: bigint</text>
<polyline fill="none" stroke="black" points="3438.75,-98 3438.75,-133.5"/>
<text text-anchor="middle" x="3508.25" y="-110.7" font-family="Times New Roman,serif" font-size="14.00">section_name: varchar</text>
<polyline fill="none" stroke="black" points="3577.75,-98 3577.75,-133.5"/>
<text text-anchor="middle" x="3630.38" y="-110.7" font-family="Times New Roman,serif" font-size="14.00">tenant_id: bigint</text>
</g>
<!-- section_info -->
<g id="node12" class="node">
<title>section_info</title>
<path fill="none" stroke="black" d="M305,-535.5C305,-535.5 908.5,-535.5 908.5,-535.5 914.5,-535.5 920.5,-541.5 920.5,-547.5 920.5,-547.5 920.5,-559.5 920.5,-559.5 920.5,-565.5 914.5,-571.5 908.5,-571.5 908.5,-571.5 305,-571.5 305,-571.5 299,-571.5 293,-565.5 293,-559.5 293,-559.5 293,-547.5 293,-547.5 293,-541.5 299,-535.5 305,-535.5"/>
<text text-anchor="middle" x="334.38" y="-548.7" font-family="Times New Roman,serif" font-size="14.00">section_info</text>
<polyline fill="none" stroke="black" points="375.75,-536 375.75,-571.5"/>
<text text-anchor="middle" x="431" y="-548.7" font-family="Times New Roman,serif" font-size="14.00">section_id: bigint</text>
<polyline fill="none" stroke="black" points="486.25,-536 486.25,-571.5"/>
<text text-anchor="middle" x="555.75" y="-548.7" font-family="Times New Roman,serif" font-size="14.00">section_name: varchar</text>
<polyline fill="none" stroke="black" points="625.25,-536 625.25,-571.5"/>
<text text-anchor="middle" x="690.62" y="-548.7" font-family="Times New Roman,serif" font-size="14.00">teacher_count: bigint</text>
<polyline fill="none" stroke="black" points="756,-536 756,-571.5"/>
<text text-anchor="middle" x="838.25" y="-548.7" font-family="Times New Roman,serif" font-size="14.00">total_responsibility: double</text>
</g>
<!-- section_seq -->
<g id="node13" class="node">
<title>section_seq</title>
<path fill="none" stroke="black" d="M528.5,-590.5C528.5,-590.5 685,-590.5 685,-590.5 691,-590.5 697,-596.5 697,-602.5 697,-602.5 697,-614.5 697,-614.5 697,-620.5 691,-626.5 685,-626.5 685,-626.5 528.5,-626.5 528.5,-626.5 522.5,-626.5 516.5,-620.5 516.5,-614.5 516.5,-614.5 516.5,-602.5 516.5,-602.5 516.5,-596.5 522.5,-590.5 528.5,-590.5"/>
<text text-anchor="middle" x="556" y="-603.7" font-family="Times New Roman,serif" font-size="14.00">section_seq</text>
<polyline fill="none" stroke="black" points="595.5,-591 595.5,-626.5"/>
<text text-anchor="middle" x="646.25" y="-603.7" font-family="Times New Roman,serif" font-size="14.00">next_val: bigint</text>
</g>
<!-- skill_seq -->
<g id="node15" class="node">
<title>skill_seq</title>
<path fill="none" stroke="black" d="M536,-645.5C536,-645.5 677.5,-645.5 677.5,-645.5 683.5,-645.5 689.5,-651.5 689.5,-657.5 689.5,-657.5 689.5,-669.5 689.5,-669.5 689.5,-675.5 683.5,-681.5 677.5,-681.5 677.5,-681.5 536,-681.5 536,-681.5 530,-681.5 524,-675.5 524,-669.5 524,-669.5 524,-657.5 524,-657.5 524,-651.5 530,-645.5 536,-645.5"/>
<text text-anchor="middle" x="556" y="-658.7" font-family="Times New Roman,serif" font-size="14.00">skill_seq</text>
<polyline fill="none" stroke="black" points="588,-646 588,-681.5"/>
<text text-anchor="middle" x="638.75" y="-658.7" font-family="Times New Roman,serif" font-size="14.00">next_val: bigint</text>
</g>
<!-- teacher&#45;&gt;section -->
<g id="edge6" class="edge">
<title>teacher&#45;&gt;section</title>
<path fill="none" stroke="black" d="M2991.32,-115.5C3045.95,-115.5 3098.4,-115.5 3146.71,-115.5"/>
<polygon fill="black" stroke="black" points="3146.41,-119 3156.41,-115.5 3146.41,-112 3146.41,-119"/>
<text text-anchor="middle" x="3074.62" y="-118.7" font-family="Times New Roman,serif" font-size="14.00">section_id &#45;&gt; section_id</text>
</g>
<!-- teacher_has_skill -->
<g id="node17" class="node">
<title>teacher_has_skill</title>
<path fill="none" stroke="black" d="M460.5,-55.5C460.5,-55.5 753,-55.5 753,-55.5 759,-55.5 765,-61.5 765,-67.5 765,-67.5 765,-79.5 765,-79.5 765,-85.5 759,-91.5 753,-91.5 753,-91.5 460.5,-91.5 460.5,-91.5 454.5,-91.5 448.5,-85.5 448.5,-79.5 448.5,-79.5 448.5,-67.5 448.5,-67.5 448.5,-61.5 454.5,-55.5 460.5,-55.5"/>
<text text-anchor="middle" x="503.38" y="-68.7" font-family="Times New Roman,serif" font-size="14.00">teacher_has_skill</text>
<polyline fill="none" stroke="black" points="558.25,-56 558.25,-91.5"/>
<text text-anchor="middle" x="613.88" y="-68.7" font-family="Times New Roman,serif" font-size="14.00">teacher_id: bigint</text>
<polyline fill="none" stroke="black" points="669.5,-56 669.5,-91.5"/>
<text text-anchor="middle" x="717.25" y="-68.7" font-family="Times New Roman,serif" font-size="14.00">skill_id: bigint</text>
</g>
<!-- teacher_has_skill&#45;&gt;skill -->
<g id="edge7" class="edge">
<title>teacher_has_skill&#45;&gt;skill</title>
<path fill="none" stroke="black" d="M765.38,-67.53C891.47,-63.07 1072.8,-57.35 1231.5,-55 1495.39,-51.09 1800.38,-53.4 1993.09,-55.71"/>
<polygon fill="black" stroke="black" points="1992.92,-59.2 2002.96,-55.83 1993.01,-52.2 1992.92,-59.2"/>
<text text-anchor="middle" x="1297.88" y="-58.2" font-family="Times New Roman,serif" font-size="14.00">skill_id &#45;&gt; skill_id</text>
</g>
<!-- teacher_has_skill&#45;&gt;teacher -->
<g id="edge8" class="edge">
<title>teacher_has_skill&#45;&gt;teacher</title>
<path fill="none" stroke="black" d="M765.17,-77.69C933.67,-82.18 1212.85,-89.61 1479.31,-96.7"/>
<polygon fill="black" stroke="black" points="1479.18,-100.2 1489.27,-96.96 1479.37,-93.2 1479.18,-100.2"/>
<text text-anchor="middle" x="1297.88" y="-96.76" font-family="Times New Roman,serif" font-size="14.00">teacher_id &#45;&gt; teacher_id</text>
</g>
<!-- teacher_info -->
<g id="node18" class="node">
<title>teacher_info</title>
<path fill="none" stroke="black" d="M64.12,-700.5C64.12,-700.5 1149.38,-700.5 1149.38,-700.5 1155.38,-700.5 1161.38,-706.5 1161.38,-712.5 1161.38,-712.5 1161.38,-724.5 1161.38,-724.5 1161.38,-730.5 1155.38,-736.5 1149.38,-736.5 1149.38,-736.5 64.12,-736.5 64.12,-736.5 58.12,-736.5 52.12,-730.5 52.12,-724.5 52.12,-724.5 52.12,-712.5 52.12,-712.5 52.12,-706.5 58.12,-700.5 64.12,-700.5"/>
<text text-anchor="middle" x="93.88" y="-713.7" font-family="Times New Roman,serif" font-size="14.00">teacher_info</text>
<polyline fill="none" stroke="black" points="135.62,-701 135.62,-736.5"/>
<text text-anchor="middle" x="191.25" y="-713.7" font-family="Times New Roman,serif" font-size="14.00">teacher_id: bigint</text>
<polyline fill="none" stroke="black" points="246.88,-701 246.88,-736.5"/>
<text text-anchor="middle" x="306.62" y="-713.7" font-family="Times New Roman,serif" font-size="14.00">full_name: varchar</text>
<polyline fill="none" stroke="black" points="366.38,-701 366.38,-736.5"/>
<text text-anchor="middle" x="413" y="-713.7" font-family="Times New Roman,serif" font-size="14.00">birth_year: int</text>
<polyline fill="none" stroke="black" points="459.62,-701 459.62,-736.5"/>
<text text-anchor="middle" x="542.25" y="-713.7" font-family="Times New Roman,serif" font-size="14.00">responsibility_ratio: double</text>
<polyline fill="none" stroke="black" points="624.88,-701 624.88,-736.5"/>
<text text-anchor="middle" x="707.5" y="-713.7" font-family="Times New Roman,serif" font-size="14.00">responsibility_count: bigint</text>
<polyline fill="none" stroke="black" points="790.12,-701 790.12,-736.5"/>
<text text-anchor="middle" x="829.25" y="-713.7" font-family="Times New Roman,serif" font-size="14.00">quota: float</text>
<polyline fill="none" stroke="black" points="868.38,-701 868.38,-736.5"/>
<text text-anchor="middle" x="939" y="-713.7" font-family="Times New Roman,serif" font-size="14.00">percentage_hired: float</text>
<polyline fill="none" stroke="black" points="1009.62,-701 1009.62,-736.5"/>
<text text-anchor="middle" x="1085.5" y="-713.7" font-family="Times New Roman,serif" font-size="14.00">teaching_reduction: float</text>
</g>
<!-- teacher_seq -->
<g id="node19" class="node">
<title>teacher_seq</title>
<path fill="none" stroke="black" d="M528.12,-755.5C528.12,-755.5 685.38,-755.5 685.38,-755.5 691.38,-755.5 697.38,-761.5 697.38,-767.5 697.38,-767.5 697.38,-779.5 697.38,-779.5 697.38,-785.5 691.38,-791.5 685.38,-791.5 685.38,-791.5 528.12,-791.5 528.12,-791.5 522.12,-791.5 516.12,-785.5 516.12,-779.5 516.12,-779.5 516.12,-767.5 516.12,-767.5 516.12,-761.5 522.12,-755.5 528.12,-755.5"/>
<text text-anchor="middle" x="556" y="-768.7" font-family="Times New Roman,serif" font-size="14.00">teacher_seq</text>
<polyline fill="none" stroke="black" points="595.88,-756 595.88,-791.5"/>
<text text-anchor="middle" x="646.62" y="-768.7" font-family="Times New Roman,serif" font-size="14.00">next_val: bigint</text>
</g>
<!-- tenant -->
<g id="node20" class="node">
<title>tenant</title>
<path fill="none" stroke="black" d="M474.75,-810.5C474.75,-810.5 738.75,-810.5 738.75,-810.5 744.75,-810.5 750.75,-816.5 750.75,-822.5 750.75,-822.5 750.75,-834.5 750.75,-834.5 750.75,-840.5 744.75,-846.5 738.75,-846.5 738.75,-846.5 474.75,-846.5 474.75,-846.5 468.75,-846.5 462.75,-840.5 462.75,-834.5 462.75,-834.5 462.75,-822.5 462.75,-822.5 462.75,-816.5 468.75,-810.5 474.75,-810.5"/>
<text text-anchor="middle" x="487.25" y="-823.7" font-family="Times New Roman,serif" font-size="14.00">tenant</text>
<polyline fill="none" stroke="black" points="511.75,-811 511.75,-846.5"/>
<text text-anchor="middle" x="564.38" y="-823.7" font-family="Times New Roman,serif" font-size="14.00">tenant_id: bigint</text>
<polyline fill="none" stroke="black" points="617,-811 617,-846.5"/>
<text text-anchor="middle" x="683.88" y="-823.7" font-family="Times New Roman,serif" font-size="14.00">tenant_name: varchar</text>
</g>
<!-- tenant_seq -->
<g id="node21" class="node">
<title>tenant_seq</title>
<path fill="none" stroke="black" d="M531.12,-865.5C531.12,-865.5 682.38,-865.5 682.38,-865.5 688.38,-865.5 694.38,-871.5 694.38,-877.5 694.38,-877.5 694.38,-889.5 694.38,-889.5 694.38,-895.5 688.38,-901.5 682.38,-901.5 682.38,-901.5 531.12,-901.5 531.12,-901.5 525.12,-901.5 519.12,-895.5 519.12,-889.5 519.12,-889.5 519.12,-877.5 519.12,-877.5 519.12,-871.5 525.12,-865.5 531.12,-865.5"/>
<text text-anchor="middle" x="556" y="-878.7" font-family="Times New Roman,serif" font-size="14.00">tenant_seq</text>
<polyline fill="none" stroke="black" points="592.88,-866 592.88,-901.5"/>
<text text-anchor="middle" x="643.62" y="-878.7" font-family="Times New Roman,serif" font-size="14.00">next_val: bigint</text>
</g>
<!-- user -->
<g id="node22" class="node">
<title>user</title>
<path fill="none" stroke="black" d="M354.5,-920.5C354.5,-920.5 859,-920.5 859,-920.5 865,-920.5 871,-926.5 871,-932.5 871,-932.5 871,-944.5 871,-944.5 871,-950.5 865,-956.5 859,-956.5 859,-956.5 354.5,-956.5 354.5,-956.5 348.5,-956.5 342.5,-950.5 342.5,-944.5 342.5,-944.5 342.5,-932.5 342.5,-932.5 342.5,-926.5 348.5,-920.5 354.5,-920.5"/>
<text text-anchor="middle" x="361.75" y="-933.7" font-family="Times New Roman,serif" font-size="14.00">user</text>
<polyline fill="none" stroke="black" points="381,-921 381,-956.5"/>
<text text-anchor="middle" x="428.38" y="-933.7" font-family="Times New Roman,serif" font-size="14.00">user_id: bigint</text>
<polyline fill="none" stroke="black" points="475.75,-921 475.75,-956.5"/>
<text text-anchor="middle" x="547.88" y="-933.7" font-family="Times New Roman,serif" font-size="14.00">user_password: varchar</text>
<polyline fill="none" stroke="black" points="620,-921 620,-956.5"/>
<text text-anchor="middle" x="672.62" y="-933.7" font-family="Times New Roman,serif" font-size="14.00">tenant_id: bigint</text>
<polyline fill="none" stroke="black" points="725.25,-921 725.25,-956.5"/>
<text text-anchor="middle" x="798.12" y="-933.7" font-family="Times New Roman,serif" font-size="14.00">user_username: varchar</text>
</g>
<!-- user_seq -->
<g id="node23" class="node">
<title>user_seq</title>
<path fill="none" stroke="black" d="M536.38,-975.5C536.38,-975.5 677.12,-975.5 677.12,-975.5 683.12,-975.5 689.12,-981.5 689.12,-987.5 689.12,-987.5 689.12,-999.5 689.12,-999.5 689.12,-1005.5 683.12,-1011.5 677.12,-1011.5 677.12,-1011.5 536.38,-1011.5 536.38,-1011.5 530.38,-1011.5 524.38,-1005.5 524.38,-999.5 524.38,-999.5 524.38,-987.5 524.38,-987.5 524.38,-981.5 530.38,-975.5 536.38,-975.5"/>
<text text-anchor="middle" x="556" y="-988.7" font-family="Times New Roman,serif" font-size="14.00">user_seq</text>
<polyline fill="none" stroke="black" points="587.62,-976 587.62,-1011.5"/>
<text text-anchor="middle" x="638.38" y="-988.7" font-family="Times New Roman,serif" font-size="14.00">next_val: bigint</text>
</g>
</g>
</svg>
